<svg width="38" height="28" viewBox="0 0 38 28" fill="none" xmlns="http://www.w3.org/2000/svg">
<path d="M34.9375 20.4969C36.4609 17.611 37.7 14.072 37.7 10.3002C37.7 8.40564 37.0959 6.25198 36.084 4.53931C35.1992 3.0417 33.5584 1.10683 30.7645 0.393469C27.2288 -0.509218 23.6465 0.332595 20.768 1.00909C19.7277 1.25354 18.7451 1.48443 17.9034 1.59862C16.016 1.85446 14.0219 1.81698 12.3077 1.75211H12.3065C12.0383 1.74193 11.7763 1.73115 11.5234 1.72071C10.4403 1.67593 7.9461 1.63297 7.9461 1.63297C7.80998 1.06614 7.49968 0.601748 7.11235 0.387382C6.94825 0.298074 6.76911 0.252803 6.58806 0.254895C6.40701 0.256987 6.22867 0.306387 6.06612 0.399469C5.53336 0.681146 5.27789 1.30703 5.39866 2.01361C4.54501 2.44286 3.71104 3.29729 3.20525 3.96917C2.77097 4.546 2.40271 5.45678 2.04644 6.33755C1.68369 7.23458 1.30865 8.16214 0.93331 8.53669C0.841431 8.62762 0.760175 8.73223 0.691626 8.84785C0.690434 8.84785 0.689242 8.84707 0.687975 8.84681C0.609489 8.82836 0.528566 8.82926 0.450397 8.84946C0.372227 8.86965 0.298536 8.9087 0.234049 8.96408C0.169562 9.01947 0.115704 9.08997 0.0759273 9.17108C0.0361508 9.25218 0.0113344 9.34209 0.00306964 9.43505C-0.00519513 9.528 0.00327415 9.62194 0.0279344 9.71085C0.0525946 9.79976 0.0929014 9.88168 0.14627 9.95134C0.199638 10.021 0.26489 10.0769 0.337841 10.1154C0.410792 10.1539 0.489831 10.1742 0.56989 10.1749C0.63766 10.4214 0.729188 10.658 0.842716 10.8804C1.59802 12.398 2.7928 13.3415 3.84693 14.1737C4.42805 14.6325 4.97683 15.066 5.40201 15.55C5.72099 15.9258 5.99845 16.3468 6.22794 16.803C6.23047 16.8088 6.23382 16.8138 6.23658 16.8194C6.66817 17.6624 7.01051 18.6908 7.07443 19.673C7.15526 20.914 7.34651 24.2647 7.40663 25.3232C7.19893 25.4003 7.0041 25.5184 6.83058 25.6723C6.70149 25.7863 6.60678 25.9452 6.56013 26.1261C6.51349 26.307 6.51733 26.5005 6.57109 26.6787C6.62213 26.8606 6.7214 27.0188 6.85453 27.1304C6.98766 27.2421 7.14777 27.3015 7.31172 27.3H10.8421C10.9558 27.3001 11.0682 27.2712 11.1713 27.2152C11.2744 27.1592 11.3658 27.0774 11.4389 26.9758C12.2197 25.8921 14.1672 23.0991 15.3997 20.565C20.171 20.5596 23.4295 20.3575 25.3303 19.9476C25.6134 22.0369 25.9873 24.4175 26.124 25.2761C26.006 25.3406 25.8944 25.4199 25.7912 25.5126C25.65 25.6397 25.5464 25.8152 25.495 26.0145C25.4435 26.2138 25.4467 26.4269 25.5042 26.624C25.5617 26.821 25.6706 26.9921 25.8156 27.1133C25.9606 27.2345 26.1344 27.2997 26.3128 27.2998H29.6218C29.8176 27.2996 30.0074 27.2211 30.1596 27.0774C31.2509 26.0441 33.2477 23.6838 34.9128 20.5441C34.922 20.5291 34.9303 20.5133 34.9375 20.4969ZM11.6176 10.5667C10.5502 13.1777 8.67138 15.2898 6.66996 16.1513C6.44016 15.7316 6.17213 15.3422 5.87055 14.9899C5.40238 14.4569 4.82946 14.0046 4.22287 13.5256C3.17984 12.7018 2.10098 11.8501 1.42271 10.4872C1.00982 9.65766 1.16404 9.33642 1.36922 9.1317C1.85393 8.64801 2.24208 7.6881 2.65311 6.67166C2.98941 5.83985 3.33719 4.97978 3.70918 4.48591C4.15932 3.88786 4.95984 3.06083 5.73451 2.69819C5.81061 2.66244 5.87903 2.60757 5.93492 2.53748C6.35839 3.25998 7.367 3.15345 7.62015 2.49556C7.63781 2.4483 7.65091 2.39889 7.65919 2.34825C8.72524 2.51009 10.4239 2.45826 11.4998 2.50296C11.6821 2.51052 11.8702 2.51817 12.0606 2.52565C12.8452 5.09744 12.6905 7.94238 11.6176 10.5667ZM32.1906 17.7354C31.5656 17.5998 28.4634 17.0522 25.8616 18.8322C25.7379 17.8505 25.6535 17.0342 25.6535 16.6352C25.6535 16.5314 25.6182 16.4319 25.5553 16.3585C25.4924 16.2851 25.4071 16.2439 25.3182 16.2439C25.2293 16.2439 25.144 16.2851 25.0812 16.3585C25.0183 16.4319 24.983 16.5314 24.983 16.6352C24.983 17.0986 25.0843 18.0535 25.2279 19.1739C23.6045 19.5279 20.9276 19.7249 17.0905 19.7717C17.8543 19.2302 18.4635 18.453 18.9083 17.4422C19.5278 16.0353 19.8016 14.2024 19.7001 12.1414C19.5858 9.8195 18.0572 6.69193 16.8289 4.17919C16.5444 3.59731 16.272 3.03996 16.0451 2.5467C16.6911 2.51583 17.3407 2.46278 17.9805 2.37599C18.8498 2.25824 19.8457 2.02413 20.9 1.77594C23.717 1.11388 27.2227 0.289896 30.6209 1.15771C35.2896 2.35016 37.0295 7.39834 37.0295 10.3002C37.0295 13.6402 36.0128 16.7965 34.7009 19.4482C34.3157 18.7759 33.513 18.0226 32.1906 17.7354Z" fill="black"/>
</svg>
